<svg width="96" height="54" viewBox="0 0 96 54" fill="none" xmlns="http://www.w3.org/2000/svg">
<path d="M40.0672 12.9987C40.3692 12.733 40.3933 12.262 40.1155 11.9721L34.6441 5.93332C34.3783 5.63138 33.9073 5.60722 33.6174 5.88501C33.3155 6.15072 33.2913 6.62174 33.5691 6.91161L39.0527 12.9383C39.3063 13.2524 39.7773 13.2644 40.0672 12.9987Z" fill="#FFEEEE"/>
<path d="M34.1836 20.3295C34.3527 19.9672 34.2077 19.5324 33.8454 19.3512L26.5018 15.8125C26.1394 15.6434 25.7046 15.7883 25.5234 16.1507C25.3543 16.513 25.4993 16.9478 25.8616 17.1289L33.2052 20.6677C33.5797 20.8489 34.0145 20.6918 34.1836 20.3295Z" fill="#FFEEEE"/>
<path d="M63.2695 20.7765C63.1004 20.4142 63.2454 19.9794 63.6077 19.7983L70.9513 16.2595C71.3137 16.0904 71.7485 16.2354 71.9297 16.5977C72.0988 16.96 71.9538 17.3948 71.5915 17.576L64.2358 21.1147C63.8734 21.2838 63.4386 21.1389 63.2695 20.7765Z" fill="#FFEEEE"/>
<path d="M57.749 13.1073C58.0751 13.3368 58.5341 13.2522 58.7636 12.9261L63.4137 6.23513C63.6432 5.90904 63.5587 5.45009 63.2325 5.22061C62.9064 4.99114 62.4475 5.07568 62.218 5.40178L57.5678 12.0928C57.3263 12.4189 57.4108 12.8778 57.749 13.1073Z" fill="#FFEEEE"/>
<path d="M64.8392 23.9771L61.3123 21.8876C61.3123 21.8756 61.2882 21.8514 61.2278 21.8273C60.8051 21.6582 61.0587 21.1509 61.0587 21.1509H61.0466L62.8463 17.4068C63.1482 16.7788 63.0879 16.0783 62.6893 15.5107C62.2907 14.943 61.6505 14.6411 60.9621 14.7135L56.94 15.1121C56.9158 15.1121 56.8917 15.1121 56.8555 15.1121C56.4689 15.1483 56.324 14.9189 56.2636 14.7618L55.4664 10.583C55.3336 9.90664 54.8746 9.37522 54.2224 9.15782C53.5702 8.94043 52.8817 9.08536 52.3623 9.54431L49.4031 12.2135C49.379 12.2255 49.3427 12.2376 49.3186 12.2618C48.9804 12.5154 48.6784 12.3342 48.5939 12.2739L45.6105 9.44769C45.1033 8.96458 44.3786 8.78342 43.7384 8.98874C43.0862 9.19406 42.6031 9.7134 42.4581 10.3897L41.5885 14.3995C41.4918 14.8102 41.2261 14.8705 41.0208 14.8585L40.9483 14.8464C40.8396 14.8222 40.7672 14.7981 40.7672 14.7981C40.7672 14.7981 40.7671 14.8102 40.7792 14.8343L36.89 14.3391C36.2136 14.2546 35.5614 14.5324 35.1507 15.0759C34.7401 15.6314 34.6555 16.3319 34.9333 16.96L36.6484 20.8852C36.6484 20.8852 36.733 21.1267 36.5156 21.3562L32.7472 23.4698C32.1553 23.808 31.793 24.4119 31.793 25.1003C31.793 25.7887 32.1432 26.4047 32.7351 26.7428L35.8996 28.5666L35.8875 28.5907L36.4552 28.8806L36.576 28.953C36.6243 28.9772 36.6605 29.0014 36.7088 29.0134L40.4773 30.9821H40.5981C40.1753 29.9555 39.9458 28.8202 39.9458 27.6366C39.9458 22.7572 43.9075 18.7958 48.7871 18.7958C53.6668 18.7958 57.6285 22.7572 57.6285 27.6366C57.6285 29.0014 57.3144 30.3057 56.7588 31.4531L60.8775 29.2791C60.9258 29.2671 60.9742 29.2429 61.0225 29.2188L64.7184 27.2863C65.3465 26.9602 65.7451 26.3201 65.7572 25.6438C65.7813 24.9554 65.431 24.3273 64.8392 23.9771Z" fill="#FFEEEE"/>
<path d="M54.2329 23.4697C54.2329 23.4697 55.6461 26.8273 53.4116 29.7622C51.1771 32.697 46.1042 32.7574 43.8456 29.6414C41.5869 26.5374 43.3624 23.6026 43.3624 23.6026C40.5603 27.0085 42.6981 30.7767 42.6981 30.7767C42.6981 30.7767 44.0992 33.7719 47.9401 34.1463C51.7931 34.5207 54.6798 31.8758 55.4408 28.8563C56.2017 25.8611 54.2329 23.4697 54.2329 23.4697Z" fill="#FFEEEE"/>
<path d="M48.7746 22.5762C47.0112 22.5762 45.5859 24.0013 45.5859 25.7647C45.5859 27.528 47.0112 28.9532 48.7746 28.9532C50.538 28.9532 51.9633 27.528 51.9633 25.7647C51.9633 24.0013 50.526 22.5762 48.7746 22.5762ZM48.7384 27.214C47.9291 27.214 47.2769 26.5618 47.2769 25.7526C47.2769 24.9434 47.9291 24.2912 48.7384 24.2912C49.5476 24.2912 50.1998 24.9434 50.1998 25.7526C50.1998 26.5618 49.5476 27.214 48.7384 27.214Z" fill="#FFEEEE"/>
<path d="M50.7677 7.30999C49.4994 7.08052 49.5236 6.41625 49.4511 6.02976C49.3787 5.64328 48.9197 4.80992 48.7868 5.93314C48.654 7.04428 48.0138 7.10467 47.3978 7.28584C46.7818 7.45492 47.2046 7.7931 47.3374 7.81725C48.8834 8.08296 48.5573 8.81969 48.7264 9.3028C48.7868 9.45981 49.0646 10.1241 49.3545 9.0854C49.6444 8.04673 50.2241 8.02257 50.6469 7.93803C50.8039 7.9018 52.0359 7.53947 50.7677 7.30999Z" fill="#FFEEEE"/>
<path d="M20.3322 51.6241L17.135 39.5552C17.0746 39.3362 16.8937 39.2389 16.7489 39.2389C16.6041 39.2267 16.4111 39.2997 16.3266 39.5065L13.3707 46.7941C13.3224 46.9158 13.2138 46.9888 13.0811 46.9888C12.9484 46.9888 12.8398 46.9158 12.7916 46.7941L9.83565 39.5065C9.75119 39.2876 9.55815 39.2267 9.41337 39.2389C9.26859 39.2511 9.08762 39.3362 9.02729 39.5552L5.81801 51.6241H7.38646C7.57949 51.6241 7.7484 51.4903 7.79666 51.3078L9.63054 44.7989C9.66674 44.665 9.77532 44.5799 9.90804 44.5799C10.0408 44.5799 10.1614 44.6529 10.2097 44.7745L12.6709 50.9428C12.7554 51.1375 12.9243 51.2105 13.0691 51.2105C13.2138 51.2105 13.3827 51.1375 13.4672 50.9428L15.9285 44.7745C15.9767 44.6529 16.0853 44.5799 16.218 44.5799H16.2301C16.3628 44.592 16.4714 44.6772 16.5076 44.7989L18.3415 51.3078C18.3897 51.4903 18.5586 51.6241 18.7517 51.6241H20.3322Z" fill="#FFEEEE"/>
<path d="M23.1185 51.6242H28.7046C29.163 51.6242 29.525 51.2471 29.525 50.7969C29.525 50.3346 29.151 49.9696 28.7046 49.9696H24.8438C24.6749 49.9696 24.5422 49.8358 24.5422 49.6655V45.5411C24.5422 45.3708 24.6749 45.2369 24.8438 45.2369H27.5463C27.9807 45.2369 28.3426 44.8719 28.3426 44.434C28.3426 43.996 27.9807 43.631 27.5463 43.631H24.8438C24.6749 43.631 24.5422 43.4972 24.5422 43.3268V40.5529C24.5422 40.3826 24.6749 40.2488 24.8438 40.2488H28.7046C29.163 40.2488 29.525 39.8716 29.525 39.4215C29.525 38.9591 29.151 38.5941 28.7046 38.5941H23.1185C22.8772 38.5941 22.6841 38.7888 22.6841 39.0321V43.339C22.6841 43.5093 22.5514 43.6431 22.3825 43.6431H21.5018V45.2491H22.3705C22.5394 45.2491 22.6721 45.3829 22.6721 45.5533V51.2106C22.6841 51.4296 22.8772 51.6242 23.1185 51.6242Z" fill="#FFEEEE"/>
<path d="M34.2428 38.5575C33.736 38.5575 33.3258 38.9712 33.3258 39.4822V51.6241H37.8502C38.3087 51.6241 38.6827 51.247 38.6827 50.7847C38.6827 50.3223 38.3087 49.9452 37.8502 49.9452H35.9319C35.5216 49.9452 35.1838 49.6045 35.1838 49.1909V39.4944C35.1597 38.9712 34.7495 38.5575 34.2428 38.5575Z" fill="#FFEEEE"/>
<path d="M76.8202 51.6242C77.327 51.6242 77.7372 51.2106 77.7372 50.6996V39.4944C77.7372 38.9835 77.327 38.5698 76.8202 38.5698C76.3135 38.5698 75.9033 38.9835 75.9033 39.4944V43.339C75.9033 43.5093 75.7706 43.6431 75.6017 43.6431H70.4379C70.269 43.6431 70.1363 43.5093 70.1363 43.339V39.4944C70.1363 38.9835 69.726 38.5698 69.2193 38.5698C68.7126 38.5698 68.3024 38.9835 68.3024 39.4944V50.6996C68.3024 51.2106 68.7126 51.6242 69.2193 51.6242C69.726 51.6242 70.1363 51.2106 70.1363 50.6996V45.6384C70.1363 45.4681 70.269 45.3342 70.4379 45.3342H75.6017C75.7706 45.3342 75.9033 45.4681 75.9033 45.6384V50.6996C75.8912 51.2106 76.3135 51.6242 76.8202 51.6242Z" fill="#FFEEEE"/>
<path d="M91.6356 51.6243L86.0615 39.0808C85.9891 38.9227 85.8444 38.8253 85.6634 38.8253C85.4824 38.8253 85.3376 38.9227 85.2653 39.0808L79.6912 51.6243H81.3562C81.5251 51.6243 81.682 51.5269 81.7543 51.3688L82.9246 48.753C83.0453 48.4854 83.3107 48.3029 83.6123 48.3029H87.6903C87.9799 48.3029 88.2453 48.4732 88.366 48.7409L89.5724 51.3688C89.6448 51.5269 89.8017 51.6243 89.9585 51.6243H91.6356ZM87.256 46.5509C87.1956 46.6361 87.0991 46.6969 87.0026 46.6969H84.3483C84.2397 46.6969 84.1432 46.6483 84.0949 46.5509C84.0346 46.4658 84.0346 46.3563 84.0708 46.2589L85.398 43.339C85.4462 43.2295 85.5548 43.1565 85.6755 43.1565C85.7961 43.1565 85.9047 43.2295 85.953 43.339L87.2801 46.2589C87.3163 46.3563 87.3042 46.4658 87.256 46.5509Z" fill="#FFEEEE"/>
<path d="M39.8768 45.091C39.8768 44.1907 40.0216 43.3391 40.3111 42.5604C40.6007 41.7818 41.035 41.0761 41.6021 40.4557C42.145 39.8717 42.7844 39.4215 43.5083 39.093C44.2322 38.7767 44.9803 38.6186 45.7766 38.6186C46.5608 38.6186 47.3088 38.7767 48.0327 39.093C48.7445 39.4094 49.384 39.8717 49.939 40.4678C50.506 41.0761 50.9404 41.7818 51.2299 42.5604C51.5195 43.3391 51.6643 44.1785 51.6643 45.0789C51.6643 45.8332 51.5677 46.551 51.3626 47.2201C51.1575 47.8893 50.8559 48.4976 50.4578 49.0572C49.9028 49.8359 49.203 50.4442 48.3826 50.8822C47.5501 51.3202 46.6814 51.5391 45.7766 51.5391C44.9923 51.5391 44.2443 51.381 43.5204 51.0525C42.7965 50.7362 42.1571 50.2739 41.6141 49.6777C41.035 49.0572 40.6007 48.3637 40.3111 47.5851C40.0216 46.8308 39.8768 45.9913 39.8768 45.091ZM41.3246 45.091C41.3246 46.551 41.7589 47.7676 42.6155 48.7409C43.4721 49.7264 44.5339 50.213 45.7886 50.213C47.0434 50.213 48.093 49.7264 48.9496 48.7531C49.7942 47.7798 50.2285 46.5631 50.2285 45.091C50.2285 43.6189 49.8063 42.4023 48.9496 41.429C48.1051 40.4557 47.0434 39.969 45.7886 39.969C44.5218 39.969 43.4721 40.4557 42.6155 41.429C41.7469 42.4023 41.3246 43.6189 41.3246 45.091Z" fill="#FFEEEE"/>
<path d="M45.7887 51.6365C45.0045 51.6365 44.2324 51.4661 43.4964 51.1498C42.7604 50.8213 42.1089 50.359 41.566 49.7629C40.9869 49.1424 40.5405 48.4246 40.2509 47.6459C39.9614 46.8673 39.8045 46.0035 39.8045 45.091C39.8045 44.1785 39.9493 43.3147 40.2509 42.5361C40.5405 41.7453 40.9869 41.0275 41.566 40.407C42.121 39.8109 42.7725 39.3485 43.4964 39.0322C44.2203 38.7159 44.9924 38.5456 45.7887 38.5456C46.585 38.5456 47.3451 38.7037 48.069 39.0322C48.7929 39.3485 49.4444 39.823 49.9994 40.4192C50.5785 41.0397 51.0129 41.7575 51.3145 42.5483C51.6041 43.3391 51.7609 44.1907 51.7609 45.091C51.7609 45.8575 51.6523 46.5875 51.4593 47.2566C51.2542 47.9379 50.9526 48.5584 50.5423 49.1181C49.9753 49.9089 49.2755 50.5293 48.431 50.9673C47.5985 51.4053 46.7057 51.6365 45.7887 51.6365ZM45.7887 38.7037C45.0166 38.7037 44.2686 38.8619 43.5567 39.1782C42.8449 39.4945 42.2175 39.9447 41.6746 40.5165C41.1196 41.1248 40.6853 41.8183 40.3957 42.5969C40.1061 43.3634 39.9614 44.2029 39.9614 45.1032C39.9614 45.9913 40.1061 46.8308 40.3957 47.5973C40.6853 48.3637 41.1075 49.0572 41.6746 49.6655C42.2175 50.2495 42.8449 50.6997 43.5567 51.016C44.2686 51.3323 45.0166 51.4905 45.7887 51.4905C46.6815 51.4905 47.5502 51.2715 48.3586 50.8457C49.1669 50.4198 49.8667 49.8115 50.4096 49.0451C50.7957 48.4976 51.0973 47.8893 51.3024 47.2323C51.4955 46.5753 51.6041 45.8575 51.6041 45.1153C51.6041 44.2394 51.4593 43.3999 51.1697 42.6213C50.8802 41.8548 50.4458 41.1491 49.8908 40.553C49.3358 39.969 48.7085 39.5067 48.0087 39.2025C47.2969 38.8619 46.5609 38.7037 45.7887 38.7037ZM45.7887 50.286C44.5099 50.286 43.424 49.7872 42.5553 48.7896C41.6866 47.8041 41.2523 46.551 41.2523 45.0789C41.2523 43.6067 41.6866 42.3536 42.5553 41.3681C43.424 40.3827 44.5099 39.8717 45.7887 39.8717C47.0676 39.8717 48.1414 40.3705 49.0101 41.356C49.8667 42.3414 50.301 43.5946 50.301 45.0667C50.301 46.551 49.8667 47.8041 49.0101 48.7774C48.1414 49.7872 47.0556 50.286 45.7887 50.286ZM45.7887 40.042C44.5581 40.042 43.5085 40.5287 42.676 41.4776C41.8435 42.4388 41.4092 43.6432 41.4092 45.0789C41.4092 46.5145 41.8314 47.7189 42.676 48.6801C43.5085 49.6412 44.5581 50.1279 45.7887 50.1279C47.0194 50.1279 48.057 49.6412 48.8894 48.6922C49.7219 47.7433 50.1442 46.5266 50.1442 45.0789C50.1442 43.6432 49.7219 42.4266 48.8894 41.4655C48.057 40.5287 47.0073 40.042 45.7887 40.042Z" fill="#FFEEEE"/>
<path d="M53.4862 45.091C53.4862 44.1907 53.6309 43.3391 53.9205 42.5604C54.2101 41.7818 54.6444 41.0761 55.2114 40.4557C55.7544 39.8717 56.3938 39.4215 57.1177 39.093C57.8416 38.7767 58.5896 38.6186 59.3859 38.6186C60.1701 38.6186 60.9182 38.7767 61.6421 39.093C62.3539 39.4094 62.9934 39.8717 63.5483 40.4678C64.1154 41.0761 64.5497 41.7818 64.8393 42.5604C65.1289 43.3391 65.2736 44.1785 65.2736 45.0789C65.2736 45.8332 65.1771 46.551 64.972 47.2201C64.7669 47.8893 64.4653 48.4976 64.0671 49.0572C63.5121 49.8359 62.8124 50.4442 61.992 50.8822C61.1595 51.3202 60.2908 51.5391 59.3859 51.5391C58.6017 51.5391 57.8537 51.381 57.1298 51.0525C56.4059 50.7362 55.7664 50.2739 55.2235 49.6777C54.6444 49.0572 54.2101 48.3637 53.9205 47.5851C53.6309 46.8308 53.4862 45.9913 53.4862 45.091ZM54.9219 45.091C54.9219 46.551 55.3562 47.7676 56.2128 48.7409C57.0695 49.7264 58.1312 50.213 59.3859 50.213C60.6407 50.213 61.6903 49.7264 62.547 48.7531C63.3915 47.7798 63.8258 46.5631 63.8258 45.091C63.8258 43.6189 63.4036 42.4023 62.547 41.429C61.7024 40.4557 60.6407 39.969 59.3859 39.969C58.1191 39.969 57.0695 40.4557 56.2128 41.429C55.3562 42.4023 54.9219 43.6189 54.9219 45.091Z" fill="#FFEEEE"/>
<path d="M59.3864 51.6365C58.6022 51.6365 57.83 51.4661 57.0941 51.1498C56.3581 50.8213 55.7066 50.359 55.1637 49.7629C54.5845 49.1424 54.1381 48.4246 53.8486 47.6459C53.559 46.8673 53.4022 46.0035 53.4022 45.091C53.4022 44.1785 53.5469 43.3269 53.8486 42.5361C54.1381 41.7453 54.5845 41.0275 55.1637 40.407C55.7186 39.8109 56.3702 39.3485 57.0941 39.0322C57.818 38.7159 58.5901 38.5456 59.3864 38.5456C60.1827 38.5456 60.9428 38.7037 61.6667 39.0322C62.3906 39.3485 63.0421 39.823 63.5971 40.4192C64.1762 41.0397 64.6105 41.7575 64.9122 42.5483C65.2017 43.3391 65.3586 44.1907 65.3586 45.091C65.3586 45.8575 65.25 46.5875 65.0569 47.2566C64.8518 47.9379 64.5502 48.5584 64.14 49.1181C63.5729 49.9089 62.8732 50.5293 62.0286 50.9673C61.1961 51.4053 60.3033 51.6365 59.3864 51.6365ZM59.3864 38.7037C58.6142 38.7037 57.8662 38.8619 57.1544 39.1782C56.4425 39.4945 55.8152 39.9447 55.2722 40.5165C54.7173 41.1248 54.2829 41.8183 53.9934 42.5969C53.7038 43.3634 53.559 44.2029 53.559 45.1032C53.559 45.9913 53.7038 46.8308 53.9934 47.5973C54.2829 48.3637 54.7052 49.0572 55.2722 49.6655C55.8152 50.2495 56.4425 50.6997 57.1544 51.016C57.8662 51.3323 58.6142 51.4905 59.3864 51.4905C60.2792 51.4905 61.1479 51.2715 61.9562 50.8457C62.7646 50.4198 63.4644 49.8115 64.0073 49.0451C64.3934 48.4976 64.695 47.8893 64.9001 47.2323C65.0931 46.5753 65.2017 45.8575 65.2017 45.1153C65.2017 44.2394 65.0569 43.3999 64.7674 42.6213C64.4778 41.8548 64.0435 41.1491 63.4885 40.553C62.9335 39.969 62.3061 39.5067 61.6064 39.2025C60.9066 38.8619 60.1586 38.7037 59.3864 38.7037ZM59.3864 50.286C58.1075 50.286 57.0217 49.7872 56.153 48.7896C55.2843 47.8041 54.85 46.551 54.85 45.0789C54.85 43.6067 55.2843 42.3536 56.153 41.3681C57.0217 40.3827 58.1075 39.8717 59.3864 39.8717C60.6653 39.8717 61.7391 40.3705 62.6077 41.356C63.4644 42.3414 63.8987 43.5946 63.8987 45.0667C63.8987 46.551 63.4644 47.8041 62.6077 48.7774C61.7391 49.7872 60.6653 50.286 59.3864 50.286ZM59.3864 40.042C58.1558 40.042 57.1061 40.5287 56.2736 41.4776C55.4412 42.4388 55.0068 43.6432 55.0068 45.0789C55.0068 46.5145 55.4291 47.7189 56.2736 48.6801C57.1061 49.6412 58.1558 50.1279 59.3864 50.1279C60.617 50.1279 61.6546 49.6412 62.4871 48.6922C63.3196 47.7433 63.7419 46.5266 63.7419 45.0789C63.7419 43.6432 63.3196 42.4266 62.4871 41.4655C61.6546 40.5287 60.617 40.042 59.3864 40.042Z" fill="#FFEEEE"/>
</svg>
